<?xml version="1.0" encoding="UTF-8" standalone="no"?>
<!DOCTYPE svg PUBLIC "-//W3C//DTD SVG 1.1//EN"
 "http://www.w3.org/Graphics/SVG/1.1/DTD/svg11.dtd">
<!-- Generated by graphviz version 8.0.5 (20230430.1635)
 -->
<!-- Title: tree Pages: 1 -->
<svg width="1167pt" height="332pt"
 viewBox="0.00 0.00 1166.66 332.00" xmlns="http://www.w3.org/2000/svg" xmlns:xlink="http://www.w3.org/1999/xlink">
<g id="graph0" class="graph" transform="scale(1 1) rotate(0) translate(4 328)">
<title>tree</title>
<polygon fill="white" stroke="none" points="-4,4 -4,-328 1162.66,-328 1162.66,4 -4,4"/>
<!-- messaging&#45;app -->
<g id="node1" class="node">
<title>messaging&#45;app</title>
<ellipse fill="none" stroke="black" cx="823.07" cy="-306" rx="66.03" ry="18"/>
<text text-anchor="middle" x="823.07" y="-300.57" font-family="Times New Roman,serif" font-size="14.00">messaging&#45;app</text>
</g>
<!-- client -->
<g id="node2" class="node">
<title>client</title>
<ellipse fill="none" stroke="black" cx="470.07" cy="-234" rx="30.11" ry="18"/>
<text text-anchor="middle" x="470.07" y="-228.57" font-family="Times New Roman,serif" font-size="14.00">client</text>
</g>
<!-- messaging&#45;app&#45;&gt;client -->
<g id="edge1" class="edge">
<title>messaging&#45;app&#45;&gt;client</title>
<path fill="none" stroke="black" d="M770.98,-294.67C699.55,-280.51 572.81,-255.37 509.02,-242.73"/>
<polygon fill="black" stroke="black" points="510.1,-239.17 499.61,-240.66 508.74,-246.04 510.1,-239.17"/>
</g>
<!-- package.json -->
<g id="node12" class="node">
<title>package.json</title>
<ellipse fill="none" stroke="black" cx="707.07" cy="-162" rx="59.05" ry="18"/>
<text text-anchor="middle" x="707.07" y="-156.57" font-family="Times New Roman,serif" font-size="14.00">package.json</text>
</g>
<!-- messaging&#45;app&#45;&gt;package.json -->
<g id="edge4" class="edge">
<title>messaging&#45;app&#45;&gt;package.json</title>
<path fill="none" stroke="black" d="M809.31,-288.15C789.07,-263.39 751.16,-216.97 727.62,-188.16"/>
<polygon fill="black" stroke="black" points="729.85,-186.36 720.81,-180.82 724.43,-190.78 729.85,-186.36"/>
</g>
<!-- server -->
<g id="node15" class="node">
<title>server</title>
<ellipse fill="none" stroke="black" cx="823.07" cy="-234" rx="33.1" ry="18"/>
<text text-anchor="middle" x="823.07" y="-228.57" font-family="Times New Roman,serif" font-size="14.00">server</text>
</g>
<!-- messaging&#45;app&#45;&gt;server -->
<g id="edge2" class="edge">
<title>messaging&#45;app&#45;&gt;server</title>
<path fill="none" stroke="black" d="M823.07,-287.7C823.07,-280.24 823.07,-271.32 823.07,-262.97"/>
<polygon fill="black" stroke="black" points="826.57,-263.1 823.07,-253.1 819.57,-263.1 826.57,-263.1"/>
</g>
<!-- .gitignore -->
<g id="node22" class="node">
<title>.gitignore</title>
<ellipse fill="none" stroke="black" cx="919.07" cy="-234" rx="45.08" ry="18"/>
<text text-anchor="middle" x="919.07" y="-228.57" font-family="Times New Roman,serif" font-size="14.00">.gitignore</text>
</g>
<!-- messaging&#45;app&#45;&gt;.gitignore -->
<g id="edge3" class="edge">
<title>messaging&#45;app&#45;&gt;.gitignore</title>
<path fill="none" stroke="black" d="M845.33,-288.76C858.54,-279.13 875.45,-266.81 889.73,-256.39"/>
<polygon fill="black" stroke="black" points="891.22,-258.91 897.24,-250.19 887.1,-253.25 891.22,-258.91"/>
</g>
<!-- README.md -->
<g id="node23" class="node">
<title>README.md</title>
<ellipse fill="none" stroke="black" cx="1046.07" cy="-234" rx="63.54" ry="18"/>
<text text-anchor="middle" x="1046.07" y="-228.57" font-family="Times New Roman,serif" font-size="14.00">README.md</text>
</g>
<!-- messaging&#45;app&#45;&gt;README.md -->
<g id="edge5" class="edge">
<title>messaging&#45;app&#45;&gt;README.md</title>
<path fill="none" stroke="black" d="M865.27,-291.75C901.94,-280.24 955.17,-263.53 994.38,-251.22"/>
<polygon fill="black" stroke="black" points="995.3,-254.29 1003.79,-247.96 993.2,-247.61 995.3,-254.29"/>
</g>
<!-- public -->
<g id="node3" class="node">
<title>public</title>
<ellipse fill="none" stroke="black" cx="125.07" cy="-162" rx="33.6" ry="18"/>
<text text-anchor="middle" x="125.07" y="-156.57" font-family="Times New Roman,serif" font-size="14.00">public</text>
</g>
<!-- client&#45;&gt;public -->
<g id="edge6" class="edge">
<title>client&#45;&gt;public</title>
<path fill="none" stroke="black" d="M441.84,-227.27C381.07,-214.94 237.63,-185.84 166.52,-171.41"/>
<polygon fill="black" stroke="black" points="167.66,-167.87 157.16,-169.31 166.27,-174.73 167.66,-167.87"/>
</g>
<!-- src -->
<g id="node5" class="node">
<title>src</title>
<ellipse fill="none" stroke="black" cx="279.07" cy="-162" rx="27" ry="18"/>
<text text-anchor="middle" x="279.07" y="-156.57" font-family="Times New Roman,serif" font-size="14.00">src</text>
</g>
<!-- client&#45;&gt;src -->
<g id="edge7" class="edge">
<title>client&#45;&gt;src</title>
<path fill="none" stroke="black" d="M443.69,-224.97C412.57,-215.27 359.47,-198.01 315.07,-180 313.39,-179.32 311.69,-178.6 309.97,-177.86"/>
<polygon fill="black" stroke="black" points="311.77,-174.38 301.21,-173.47 308.89,-180.77 311.77,-174.38"/>
</g>
<!-- client&#45;&gt;package.json -->
<g id="edge8" class="edge">
<title>client&#45;&gt;package.json</title>
<path fill="none" stroke="black" d="M496.79,-225.11C535.14,-213.78 606.52,-192.7 655.39,-178.26"/>
<polygon fill="black" stroke="black" points="656.16,-181.39 664.76,-175.2 654.17,-174.68 656.16,-181.39"/>
</g>
<!-- babel.config.js -->
<g id="node13" class="node">
<title>babel.config.js</title>
<ellipse fill="none" stroke="black" cx="389.07" cy="-162" rx="65.04" ry="18"/>
<text text-anchor="middle" x="389.07" y="-156.57" font-family="Times New Roman,serif" font-size="14.00">babel.config.js</text>
</g>
<!-- client&#45;&gt;babel.config.js -->
<g id="edge9" class="edge">
<title>client&#45;&gt;babel.config.js</title>
<path fill="none" stroke="black" d="M453.68,-218.83C443.01,-209.62 428.83,-197.37 416.48,-186.69"/>
<polygon fill="black" stroke="black" points="419.14,-183.5 409.28,-179.61 414.56,-188.79 419.14,-183.5"/>
</g>
<!-- webpack.config.js -->
<g id="node14" class="node">
<title>webpack.config.js</title>
<ellipse fill="none" stroke="black" cx="551.07" cy="-162" rx="78.51" ry="18"/>
<text text-anchor="middle" x="551.07" y="-156.57" font-family="Times New Roman,serif" font-size="14.00">webpack.config.js</text>
</g>
<!-- client&#45;&gt;webpack.config.js -->
<g id="edge10" class="edge">
<title>client&#45;&gt;webpack.config.js</title>
<path fill="none" stroke="black" d="M486.46,-218.83C497.05,-209.68 511.1,-197.54 523.39,-186.92"/>
<polygon fill="black" stroke="black" points="525.28,-189.05 530.56,-179.86 520.71,-183.75 525.28,-189.05"/>
</g>
<!-- index.html -->
<g id="node4" class="node">
<title>index.html</title>
<ellipse fill="none" stroke="black" cx="49.07" cy="-90" rx="49.07" ry="18"/>
<text text-anchor="middle" x="49.07" y="-84.58" font-family="Times New Roman,serif" font-size="14.00">index.html</text>
</g>
<!-- public&#45;&gt;index.html -->
<g id="edge11" class="edge">
<title>public&#45;&gt;index.html</title>
<path fill="none" stroke="black" d="M108.58,-145.81C98.6,-136.62 85.67,-124.72 74.42,-114.35"/>
<polygon fill="black" stroke="black" points="77.31,-112.33 67.58,-108.13 72.57,-117.48 77.31,-112.33"/>
</g>
<!-- components -->
<g id="node6" class="node">
<title>components</title>
<ellipse fill="none" stroke="black" cx="173.07" cy="-90" rx="56.55" ry="18"/>
<text text-anchor="middle" x="173.07" y="-84.58" font-family="Times New Roman,serif" font-size="14.00">components</text>
</g>
<!-- src&#45;&gt;components -->
<g id="edge12" class="edge">
<title>src&#45;&gt;components</title>
<path fill="none" stroke="black" d="M260.6,-148.81C245.55,-138.87 223.92,-124.58 205.92,-112.7"/>
<polygon fill="black" stroke="black" points="208.17,-109.33 197.9,-106.74 204.31,-115.17 208.17,-109.33"/>
</g>
<!-- views -->
<g id="node8" class="node">
<title>views</title>
<ellipse fill="none" stroke="black" cx="279.07" cy="-90" rx="31.6" ry="18"/>
<text text-anchor="middle" x="279.07" y="-84.58" font-family="Times New Roman,serif" font-size="14.00">views</text>
</g>
<!-- src&#45;&gt;views -->
<g id="edge13" class="edge">
<title>src&#45;&gt;views</title>
<path fill="none" stroke="black" d="M279.07,-143.7C279.07,-136.24 279.07,-127.32 279.07,-118.97"/>
<polygon fill="black" stroke="black" points="282.57,-119.1 279.07,-109.1 275.57,-119.1 282.57,-119.1"/>
</g>
<!-- main.js -->
<g id="node10" class="node">
<title>main.js</title>
<ellipse fill="none" stroke="black" cx="365.07" cy="-90" rx="36.59" ry="18"/>
<text text-anchor="middle" x="365.07" y="-84.58" font-family="Times New Roman,serif" font-size="14.00">main.js</text>
</g>
<!-- src&#45;&gt;main.js -->
<g id="edge14" class="edge">
<title>src&#45;&gt;main.js</title>
<path fill="none" stroke="black" d="M295.65,-147.5C307.78,-137.63 324.48,-124.04 338.46,-112.66"/>
<polygon fill="black" stroke="black" points="340.2,-114.94 345.75,-105.91 335.79,-109.51 340.2,-114.94"/>
</g>
<!-- router.js -->
<g id="node11" class="node">
<title>router.js</title>
<ellipse fill="none" stroke="black" cx="461.07" cy="-90" rx="41.08" ry="18"/>
<text text-anchor="middle" x="461.07" y="-84.58" font-family="Times New Roman,serif" font-size="14.00">router.js</text>
</g>
<!-- src&#45;&gt;router.js -->
<g id="edge15" class="edge">
<title>src&#45;&gt;router.js</title>
<path fill="none" stroke="black" d="M300.24,-150.6C305.08,-148.34 310.22,-146.02 315.07,-144 334.27,-136 383.35,-118.4 419.32,-105.67"/>
<polygon fill="black" stroke="black" points="420.29,-108.68 428.55,-102.05 417.96,-102.08 420.29,-108.68"/>
</g>
<!-- App.vue -->
<g id="node7" class="node">
<title>App.vue</title>
<ellipse fill="none" stroke="black" cx="173.07" cy="-18" rx="42.58" ry="18"/>
<text text-anchor="middle" x="173.07" y="-12.57" font-family="Times New Roman,serif" font-size="14.00">App.vue</text>
</g>
<!-- components&#45;&gt;App.vue -->
<g id="edge16" class="edge">
<title>components&#45;&gt;App.vue</title>
<path fill="none" stroke="black" d="M173.07,-71.7C173.07,-64.24 173.07,-55.32 173.07,-46.97"/>
<polygon fill="black" stroke="black" points="176.57,-47.1 173.07,-37.1 169.57,-47.1 176.57,-47.1"/>
</g>
<!-- Chat.vue -->
<g id="node9" class="node">
<title>Chat.vue</title>
<ellipse fill="none" stroke="black" cx="279.07" cy="-18" rx="43.58" ry="18"/>
<text text-anchor="middle" x="279.07" y="-12.57" font-family="Times New Roman,serif" font-size="14.00">Chat.vue</text>
</g>
<!-- views&#45;&gt;Chat.vue -->
<g id="edge17" class="edge">
<title>views&#45;&gt;Chat.vue</title>
<path fill="none" stroke="black" d="M279.07,-71.7C279.07,-64.24 279.07,-55.32 279.07,-46.97"/>
<polygon fill="black" stroke="black" points="282.57,-47.1 279.07,-37.1 275.57,-47.1 282.57,-47.1"/>
</g>
<!-- server&#45;&gt;package.json -->
<g id="edge22" class="edge">
<title>server&#45;&gt;package.json</title>
<path fill="none" stroke="black" d="M801.52,-220C784.93,-209.99 761.65,-195.94 742.35,-184.29"/>
<polygon fill="black" stroke="black" points="744.33,-180.79 733.96,-178.62 740.71,-186.79 744.33,-180.79"/>
</g>
<!-- index.js -->
<g id="node16" class="node">
<title>index.js</title>
<ellipse fill="none" stroke="black" cx="823.07" cy="-162" rx="39.09" ry="18"/>
<text text-anchor="middle" x="823.07" y="-156.57" font-family="Times New Roman,serif" font-size="14.00">index.js</text>
</g>
<!-- server&#45;&gt;index.js -->
<g id="edge18" class="edge">
<title>server&#45;&gt;index.js</title>
<path fill="none" stroke="black" d="M823.07,-215.7C823.07,-208.24 823.07,-199.32 823.07,-190.97"/>
<polygon fill="black" stroke="black" points="826.57,-191.1 823.07,-181.1 819.57,-191.1 826.57,-191.1"/>
</g>
<!-- controllers -->
<g id="node17" class="node">
<title>controllers</title>
<ellipse fill="none" stroke="black" cx="930.07" cy="-162" rx="50.07" ry="18"/>
<text text-anchor="middle" x="930.07" y="-156.57" font-family="Times New Roman,serif" font-size="14.00">controllers</text>
</g>
<!-- server&#45;&gt;controllers -->
<g id="edge19" class="edge">
<title>server&#45;&gt;controllers</title>
<path fill="none" stroke="black" d="M843.7,-219.5C859.11,-209.42 880.46,-195.45 898.08,-183.93"/>
<polygon fill="black" stroke="black" points="899.45,-186.56 905.9,-178.16 895.62,-180.7 899.45,-186.56"/>
</g>
<!-- models -->
<g id="node19" class="node">
<title>models</title>
<ellipse fill="none" stroke="black" cx="1121.07" cy="-162" rx="37.59" ry="18"/>
<text text-anchor="middle" x="1121.07" y="-156.57" font-family="Times New Roman,serif" font-size="14.00">models</text>
</g>
<!-- server&#45;&gt;models -->
<g id="edge20" class="edge">
<title>server&#45;&gt;models</title>
<path fill="none" stroke="black" d="M848.08,-221.86C853.6,-219.69 859.47,-217.59 865.07,-216 956.15,-190.09 983.6,-204.52 1075.07,-180 1077.66,-179.31 1080.31,-178.52 1082.96,-177.69"/>
<polygon fill="black" stroke="black" points="1083.76,-180.78 1092.11,-174.26 1081.52,-174.14 1083.76,-180.78"/>
</g>
<!-- routes -->
<g id="node21" class="node">
<title>routes</title>
<ellipse fill="none" stroke="black" cx="1032.07" cy="-162" rx="33.6" ry="18"/>
<text text-anchor="middle" x="1032.07" y="-156.57" font-family="Times New Roman,serif" font-size="14.00">routes</text>
</g>
<!-- server&#45;&gt;routes -->
<g id="edge21" class="edge">
<title>server&#45;&gt;routes</title>
<path fill="none" stroke="black" d="M848.68,-222.15C854.05,-220.01 859.72,-217.85 865.07,-216 919.29,-197.21 934.77,-198.57 989.07,-180 991.35,-179.22 993.69,-178.39 996.04,-177.53"/>
<polygon fill="black" stroke="black" points="997.18,-180.46 1005.29,-173.65 994.7,-173.91 997.18,-180.46"/>
</g>
<!-- chat.js -->
<g id="node18" class="node">
<title>chat.js</title>
<ellipse fill="none" stroke="black" cx="981.07" cy="-90" rx="34.6" ry="18"/>
<text text-anchor="middle" x="981.07" y="-84.58" font-family="Times New Roman,serif" font-size="14.00">chat.js</text>
</g>
<!-- controllers&#45;&gt;chat.js -->
<g id="edge23" class="edge">
<title>controllers&#45;&gt;chat.js</title>
<path fill="none" stroke="black" d="M942.15,-144.41C948.4,-135.83 956.16,-125.19 963.09,-115.67"/>
<polygon fill="black" stroke="black" points="966.36,-118.13 969.42,-107.99 960.7,-114.01 966.36,-118.13"/>
</g>
<!-- User.js -->
<g id="node20" class="node">
<title>User.js</title>
<ellipse fill="none" stroke="black" cx="1121.07" cy="-90" rx="36.59" ry="18"/>
<text text-anchor="middle" x="1121.07" y="-84.58" font-family="Times New Roman,serif" font-size="14.00">User.js</text>
</g>
<!-- models&#45;&gt;User.js -->
<g id="edge24" class="edge">
<title>models&#45;&gt;User.js</title>
<path fill="none" stroke="black" d="M1121.07,-143.7C1121.07,-136.24 1121.07,-127.32 1121.07,-118.97"/>
<polygon fill="black" stroke="black" points="1124.57,-119.1 1121.07,-109.1 1117.57,-119.1 1124.57,-119.1"/>
</g>
<!-- routes&#45;&gt;chat.js -->
<g id="edge25" class="edge">
<title>routes&#45;&gt;chat.js</title>
<path fill="none" stroke="black" d="M1020.24,-144.76C1014,-136.19 1006.2,-125.49 999.21,-115.9"/>
<polygon fill="black" stroke="black" points="1001.55,-114.17 992.83,-108.15 995.89,-118.29 1001.55,-114.17"/>
</g>
</g>
</svg>
