<?xml version="1.0" encoding="UTF-8" standalone="no"?>
<!DOCTYPE svg PUBLIC "-//W3C//DTD SVG 1.1//EN"
 "http://www.w3.org/Graphics/SVG/1.1/DTD/svg11.dtd">
<!-- Generated by graphviz version 8.0.5 (20230430.1635)
 -->
<!-- Title: tree Pages: 1 -->
<svg width="730pt" height="260pt"
 viewBox="0.00 0.00 729.70 260.00" xmlns="http://www.w3.org/2000/svg" xmlns:xlink="http://www.w3.org/1999/xlink">
<g id="graph0" class="graph" transform="scale(1 1) rotate(0) translate(4 256)">
<title>tree</title>
<polygon fill="white" stroke="none" points="-4,4 -4,-256 725.7,-256 725.7,4 -4,4"/>
<!-- Heading -->
<g id="node1" class="node">
<title>Heading</title>
<ellipse fill="none" stroke="black" cx="409.6" cy="-234" rx="41.08" ry="18"/>
<text text-anchor="middle" x="409.6" y="-228.57" font-family="Times New Roman,serif" font-size="14.00">Heading</text>
</g>
<!-- geography -->
<g id="node2" class="node">
<title>geography</title>
<ellipse fill="none" stroke="black" cx="174.6" cy="-162" rx="49.57" ry="18"/>
<text text-anchor="middle" x="174.6" y="-156.57" font-family="Times New Roman,serif" font-size="14.00">geography</text>
</g>
<!-- Heading&#45;&gt;geography -->
<g id="edge1" class="edge">
<title>Heading&#45;&gt;geography</title>
<path fill="none" stroke="black" d="M376.43,-223.12C336.17,-211.13 267.99,-190.82 222.15,-177.16"/>
<polygon fill="black" stroke="black" points="223.45,-173.6 212.87,-174.1 221.45,-180.31 223.45,-173.6"/>
</g>
<!-- history -->
<g id="node9" class="node">
<title>history</title>
<ellipse fill="none" stroke="black" cx="409.6" cy="-162" rx="36.09" ry="18"/>
<text text-anchor="middle" x="409.6" y="-156.57" font-family="Times New Roman,serif" font-size="14.00">history</text>
</g>
<!-- Heading&#45;&gt;history -->
<g id="edge2" class="edge">
<title>Heading&#45;&gt;history</title>
<path fill="none" stroke="black" d="M409.6,-215.7C409.6,-208.24 409.6,-199.32 409.6,-190.97"/>
<polygon fill="black" stroke="black" points="413.1,-191.1 409.6,-181.1 406.1,-191.1 413.1,-191.1"/>
</g>
<!--  Physics -->
<g id="node15" class="node">
<title> Physics</title>
<ellipse fill="none" stroke="black" cx="505.6" cy="-162" rx="42.08" ry="18"/>
<text text-anchor="middle" x="505.6" y="-156.57" font-family="Times New Roman,serif" font-size="14.00"> Physics</text>
</g>
<!-- Heading&#45;&gt; Physics -->
<g id="edge3" class="edge">
<title>Heading&#45;&gt; Physics</title>
<path fill="none" stroke="black" d="M429.96,-218.15C443.36,-208.38 461.12,-195.43 476.06,-184.54"/>
<polygon fill="black" stroke="black" points="477.92,-186.78 483.94,-178.07 473.8,-181.13 477.92,-186.78"/>
</g>
<!-- public -->
<g id="node3" class="node">
<title>public</title>
<ellipse fill="none" stroke="black" cx="33.6" cy="-90" rx="33.6" ry="18"/>
<text text-anchor="middle" x="33.6" y="-84.58" font-family="Times New Roman,serif" font-size="14.00">public</text>
</g>
<!-- geography&#45;&gt;public -->
<g id="edge4" class="edge">
<title>geography&#45;&gt;public</title>
<path fill="none" stroke="black" d="M146.07,-146.83C123.25,-135.51 91.22,-119.61 67.17,-107.67"/>
<polygon fill="black" stroke="black" points="68.92,-104.13 58.41,-102.82 65.81,-110.4 68.92,-104.13"/>
</g>
<!-- countries -->
<g id="node4" class="node">
<title>countries</title>
<ellipse fill="none" stroke="black" cx="129.6" cy="-90" rx="44.58" ry="18"/>
<text text-anchor="middle" x="129.6" y="-84.58" font-family="Times New Roman,serif" font-size="14.00">countries</text>
</g>
<!-- geography&#45;&gt;countries -->
<g id="edge5" class="edge">
<title>geography&#45;&gt;countries</title>
<path fill="none" stroke="black" d="M163.71,-144.05C158.45,-135.89 152.04,-125.91 146.2,-116.82"/>
<polygon fill="black" stroke="black" points="148.74,-115.31 140.39,-108.79 142.86,-119.09 148.74,-115.31"/>
</g>
<!-- seas -->
<g id="node5" class="node">
<title>seas</title>
<ellipse fill="none" stroke="black" cx="219.6" cy="-90" rx="27" ry="18"/>
<text text-anchor="middle" x="219.6" y="-84.58" font-family="Times New Roman,serif" font-size="14.00">seas</text>
</g>
<!-- geography&#45;&gt;seas -->
<g id="edge6" class="edge">
<title>geography&#45;&gt;seas</title>
<path fill="none" stroke="black" d="M185.49,-144.05C190.9,-135.65 197.53,-125.32 203.51,-116.02"/>
<polygon fill="black" stroke="black" points="206.96,-118.13 209.42,-107.83 201.07,-114.35 206.96,-118.13"/>
</g>
<!-- indian_ocean -->
<g id="node6" class="node">
<title>indian_ocean</title>
<ellipse fill="none" stroke="black" cx="79.6" cy="-18" rx="59.55" ry="18"/>
<text text-anchor="middle" x="79.6" y="-12.57" font-family="Times New Roman,serif" font-size="14.00">indian_ocean</text>
</g>
<!-- seas&#45;&gt;indian_ocean -->
<g id="edge7" class="edge">
<title>seas&#45;&gt;indian_ocean</title>
<path fill="none" stroke="black" d="M198.34,-78.37C177.4,-67.9 144.92,-51.66 119.22,-38.81"/>
<polygon fill="black" stroke="black" points="120.9,-35.24 110.39,-33.89 117.77,-41.5 120.9,-35.24"/>
</g>
<!-- pacific_ocean -->
<g id="node7" class="node">
<title>pacific_ocean</title>
<ellipse fill="none" stroke="black" cx="219.6" cy="-18" rx="62.54" ry="18"/>
<text text-anchor="middle" x="219.6" y="-12.57" font-family="Times New Roman,serif" font-size="14.00">pacific_ocean</text>
</g>
<!-- seas&#45;&gt;pacific_ocean -->
<g id="edge8" class="edge">
<title>seas&#45;&gt;pacific_ocean</title>
<path fill="none" stroke="black" d="M219.6,-71.7C219.6,-64.24 219.6,-55.32 219.6,-46.97"/>
<polygon fill="black" stroke="black" points="223.1,-47.1 219.6,-37.1 216.1,-47.1 223.1,-47.1"/>
</g>
<!-- atlantic_ocean -->
<g id="node8" class="node">
<title>atlantic_ocean</title>
<ellipse fill="none" stroke="black" cx="363.6" cy="-18" rx="63.54" ry="18"/>
<text text-anchor="middle" x="363.6" y="-12.57" font-family="Times New Roman,serif" font-size="14.00">atlantic_ocean</text>
</g>
<!-- seas&#45;&gt;atlantic_ocean -->
<g id="edge9" class="edge">
<title>seas&#45;&gt;atlantic_ocean</title>
<path fill="none" stroke="black" d="M241.16,-78.52C262.65,-68.07 296.21,-51.76 322.76,-38.85"/>
<polygon fill="black" stroke="black" points="324.09,-41.61 331.55,-34.09 321.03,-35.32 324.09,-41.61"/>
</g>
<!-- Ancient history -->
<g id="node10" class="node">
<title>Ancient history</title>
<ellipse fill="none" stroke="black" cx="331.6" cy="-90" rx="67.03" ry="18"/>
<text text-anchor="middle" x="331.6" y="-84.58" font-family="Times New Roman,serif" font-size="14.00">Ancient history</text>
</g>
<!-- history&#45;&gt;Ancient history -->
<g id="edge10" class="edge">
<title>history&#45;&gt;Ancient history</title>
<path fill="none" stroke="black" d="M392.67,-145.81C382.58,-136.75 369.54,-125.05 358.11,-114.79"/>
<polygon fill="black" stroke="black" points="360.91,-112.7 351.13,-108.63 356.23,-117.91 360.91,-112.7"/>
</g>
<!-- Medieval history -->
<g id="node11" class="node">
<title>Medieval history</title>
<ellipse fill="none" stroke="black" cx="488.6" cy="-90" rx="72.02" ry="18"/>
<text text-anchor="middle" x="488.6" y="-84.58" font-family="Times New Roman,serif" font-size="14.00">Medieval history</text>
</g>
<!-- history&#45;&gt;Medieval history -->
<g id="edge11" class="edge">
<title>history&#45;&gt;Medieval history</title>
<path fill="none" stroke="black" d="M426.74,-145.81C436.97,-136.75 450.17,-125.05 461.75,-114.79"/>
<polygon fill="black" stroke="black" points="463.67,-117.88 468.83,-108.63 459.03,-112.64 463.67,-117.88"/>
</g>
<!-- Modern history -->
<g id="node12" class="node">
<title>Modern history</title>
<ellipse fill="none" stroke="black" cx="646.6" cy="-90" rx="68.03" ry="18"/>
<text text-anchor="middle" x="646.6" y="-84.58" font-family="Times New Roman,serif" font-size="14.00">Modern history</text>
</g>
<!-- history&#45;&gt;Modern history -->
<g id="edge12" class="edge">
<title>history&#45;&gt;Modern history</title>
<path fill="none" stroke="black" d="M437.06,-150.17C442.82,-148.02 448.88,-145.86 454.6,-144 498.92,-129.54 549.81,-115.61 588.06,-105.67"/>
<polygon fill="black" stroke="black" points="588.69,-108.86 597.5,-102.97 586.94,-102.08 588.69,-108.86"/>
</g>
<!-- WW1 -->
<g id="node13" class="node">
<title>WW1</title>
<ellipse fill="none" stroke="black" cx="604.6" cy="-18" rx="33.1" ry="18"/>
<text text-anchor="middle" x="604.6" y="-12.57" font-family="Times New Roman,serif" font-size="14.00">WW1</text>
</g>
<!-- Modern history&#45;&gt;WW1 -->
<g id="edge13" class="edge">
<title>Modern history&#45;&gt;WW1</title>
<path fill="none" stroke="black" d="M636.43,-72.05C631.51,-63.85 625.5,-53.83 620.03,-44.71"/>
<polygon fill="black" stroke="black" points="622.53,-43.08 614.38,-36.31 616.53,-46.68 622.53,-43.08"/>
</g>
<!-- WW2 -->
<g id="node14" class="node">
<title>WW2</title>
<ellipse fill="none" stroke="black" cx="688.6" cy="-18" rx="33.1" ry="18"/>
<text text-anchor="middle" x="688.6" y="-12.57" font-family="Times New Roman,serif" font-size="14.00">WW2</text>
</g>
<!-- Modern history&#45;&gt;WW2 -->
<g id="edge14" class="edge">
<title>Modern history&#45;&gt;WW2</title>
<path fill="none" stroke="black" d="M656.77,-72.05C661.69,-63.85 667.7,-53.83 673.17,-44.71"/>
<polygon fill="black" stroke="black" points="676.67,-46.68 678.81,-36.31 670.67,-43.08 676.67,-46.68"/>
</g>
</g>
</svg>
